<svg width="15.000000" height="13.750000" viewBox="0 0 15 13.75" fill="none" xmlns="http://www.w3.org/2000/svg" xmlns:xlink="http://www.w3.org/1999/xlink">
	<desc>
			Created with Pixso.
	</desc>
	<defs/>
	<path id="Path" d="M11.0532 10.065C7.16846 10.065 4.01929 7.17783 4.01929 3.61822C4.01929 2.2753 4.4668 1.03158 5.23145 0C2.19043 0.945152 0 3.58122 0 6.68806C0 10.5885 3.44922 13.75 7.70361 13.75C11.0928 13.75 13.9697 11.7432 15 8.95452C13.875 9.65479 12.5161 10.065 11.0532 10.065Z" fill="#FFFFFF" fill-opacity="1.000000" fill-rule="evenodd"/>
	<path id="Path" d="M4.01929 3.61822C4.01929 2.2753 4.4668 1.03158 5.23145 0C2.19043 0.945152 0 3.58122 0 6.68806C0 10.5885 3.44922 13.75 7.70361 13.75C11.0928 13.75 13.9697 11.7432 15 8.95452C13.875 9.65479 12.5161 10.065 11.0532 10.065C7.16846 10.065 4.01929 7.17783 4.01929 3.61822Z" stroke="#979797" stroke-opacity="0" stroke-width="0.000000"/>
</svg>
