<svg width="16.843567" height="15.539566" viewBox="0 0 16.8436 15.5396" fill="none" xmlns="http://www.w3.org/2000/svg" xmlns:xlink="http://www.w3.org/1999/xlink">
	<desc>
			Created with Pixso.
	</desc>
	<defs/>
	<path id="Path" d="M11.6782 11.2296C7.79358 11.2296 4.64429 8.34239 4.64429 4.78278C4.64429 3.43987 5.0918 2.19614 5.85645 1.16457C2.81537 2.10972 0.625 4.74579 0.625 7.85263C0.625 11.7531 4.07428 14.9146 8.32855 14.9146C11.7178 14.9146 14.5947 12.9077 15.625 10.1191C14.5 10.8194 13.1411 11.2296 11.6782 11.2296Z" fill="#FFFFFF" fill-opacity="1.000000" fill-rule="evenodd"/>
	<path id="Path" d="M4.64429 4.78278C4.64429 3.43987 5.0918 2.19614 5.85645 1.16457C2.81537 2.10972 0.625 4.74579 0.625 7.85263C0.625 11.7531 4.07428 14.9146 8.32855 14.9146C11.7178 14.9146 14.5947 12.9077 15.625 10.1191C14.5 10.8194 13.1411 11.2296 11.6782 11.2296C7.79358 11.2296 4.64429 8.34239 4.64429 4.78278Z" stroke="#111517" stroke-opacity="1.000000" stroke-width="1.250000"/>
</svg>
